# xmcd CD database file
#
# Track frame offsets:
#	152
#	23620
#	43315
#	70387
#	92992
#	112982
#	141820
#	163555
#
# Disc length: 2377 seconds
#
# Revision: 1
# Processed by: cddbd v1.5PL3 Copyright (c) Steve Scherf et al.
# Submitted via: CDex 1.51
#
DISCID=69094708
DTITLE=Memphis Horns, The - Flame Out
DYEAR=1992
DGENRE=Blues
TTITLE0=Itta Bena Funk
TTITLE1=Let's Stay Together
TTITLE2=Neon Blue
TTITLE3=Flame Out
TTITLE4=These Arms of Mine
TTITLE5=Beale Street Strut
TTITLE6=Snakin' a Ya-ya
TTITLE7=Gee Whiz
EXTD=YEAR: 1992
EXTT0=
EXTT1=
EXTT2=
EXTT3=
EXTT4=
EXTT5=
EXTT6=
EXTT7=
PLAYORDER=
